<?xml version="1.0" standalone="no"?><!DOCTYPE svg PUBLIC "-//W3C//DTD SVG 1.1//EN" "http://www.w3.org/Graphics/SVG/1.1/DTD/svg11.dtd"><svg t="1585480594609" class="icon" viewBox="0 0 1024 1024" version="1.1" xmlns="http://www.w3.org/2000/svg" p-id="3252" xmlns:xlink="http://www.w3.org/1999/xlink" width="128" height="128"><defs><style type="text/css"></style></defs><path d="M950.8 768.016v73.139q0 14.856-10.856 25.712t-25.712 10.857h-804.52q-14.856 0-25.713-10.857t-10.856-25.712v-73.139q0-14.856 10.856-25.712t25.713-10.857h804.52q14.856 0 25.712 10.857t10.857 25.712z m0-292.552v73.138q0 14.856-10.856 25.712t-25.712 10.857h-804.52q-14.856 0-25.713-10.857t-10.856-25.712v-73.138q0-14.857 10.856-25.713t25.713-10.856h804.52q14.856 0 25.712 10.856t10.857 25.713z m0-292.553v73.138q0 14.856-10.856 25.713t-25.712 10.856h-804.52q-14.856 0-25.713-10.856t-10.856-25.713v-73.138q0-14.856 10.856-25.713t25.713-10.856h804.52q14.856 0 25.712 10.856t10.857 25.713z" p-id="3253" fill="#ffffff"></path></svg>