<?xml version="1.0" standalone="no"?><!DOCTYPE svg PUBLIC "-//W3C//DTD SVG 1.1//EN" "http://www.w3.org/Graphics/SVG/1.1/DTD/svg11.dtd"><svg t="1585136838577" class="icon" viewBox="0 0 1024 1024" version="1.1" xmlns="http://www.w3.org/2000/svg" p-id="2831" xmlns:xlink="http://www.w3.org/1999/xlink" width="128" height="128"><defs><style type="text/css"></style></defs><path d="M385.951189 817.883619c-11.400654 0-22.137183-4.453429-30.225395-12.541641l-255.054977-255.05907-0.600681-0.600681-0.669242-0.520863c-1.340531-1.057075-2.52245-2.098801-3.615341-3.187599-7.688099-7.688099-11.871375-18.051121-11.783371-29.173436l0-0.074701 0-0.073678c0-0.036839 0-0.074701 0-0.11154 0-0.041956 0-0.078795 0-0.116657l0-0.073678 0-0.074701c-0.088004-11.122315 4.096295-21.48636 11.783371-29.173436 1.093914-1.088798 2.275833-2.131547 3.615341-3.183506l0.666172-0.524956 0.599657-0.600681 255.05907-255.054977c8.088212-8.092305 18.819624-12.545734 30.225395-12.545734 10.987239 0 21.22644 4.187369 28.830629 11.787464 16.068977 16.075117 15.734356 42.567491-0.759293 59.056024L248.822019 451.240171l-24.073278 24.077372 34.046421 0 635.926474 0c23.319102 0 42.292222 18.49012 42.292222 41.222867 0 22.733771-18.97312 41.222867-42.292222 41.222867L258.795161 557.763276l-34.046421 0 24.073278 24.078395 165.205623 165.201529c7.975649 7.980765 12.429077 18.566868 12.536524 29.820166 0.107447 11.144828-4.076852 21.527292-11.782348 29.234835C407.182746 813.701366 396.939451 817.883619 385.951189 817.883619" p-id="2832" fill="#ffffff"></path></svg>