<?xml version="1.0" standalone="no"?><!DOCTYPE svg PUBLIC "-//W3C//DTD SVG 1.1//EN" "http://www.w3.org/Graphics/SVG/1.1/DTD/svg11.dtd"><svg t="1585137145094" class="icon" viewBox="0 0 1024 1024" version="1.1" xmlns="http://www.w3.org/2000/svg" p-id="9388" xmlns:xlink="http://www.w3.org/1999/xlink" width="128" height="128"><defs><style type="text/css"></style></defs><path d="M511.998465 272.318152c40.525995 0 73.386404-35.771715 73.386404-79.892585s-32.860409-79.892585-73.386404-79.892585c-40.524972 0-73.384357 35.771715-73.384357 79.892585S471.47247 272.318152 511.998465 272.318152L511.998465 272.318152zM511.998465 432.106392c-40.524972 0-73.384357 35.772738-73.384357 79.893608 0 44.12087 32.859385 79.892585 73.384357 79.892585 40.525995 0 73.386404-35.772738 73.386404-79.892585C585.384869 467.87913 552.52446 432.106392 511.998465 432.106392L511.998465 432.106392zM511.998465 751.679801c-40.524972 0-73.384357 35.733852-73.384357 79.894631 0 44.119847 32.859385 79.893608 73.384357 79.893608 40.525995 0 73.386404-35.772738 73.386404-79.893608C585.383846 787.413654 552.52446 751.679801 511.998465 751.679801L511.998465 751.679801z" p-id="9389" fill="#ffffff"></path></svg>