<?xml version="1.0" standalone="no"?><!DOCTYPE svg PUBLIC "-//W3C//DTD SVG 1.1//EN" "http://www.w3.org/Graphics/SVG/1.1/DTD/svg11.dtd"><svg t="1591965116003" class="icon" viewBox="0 0 1024 1024" version="1.1" xmlns="http://www.w3.org/2000/svg" p-id="2730" xmlns:xlink="http://www.w3.org/1999/xlink" width="128" height="128"><defs><style type="text/css"></style></defs><path d="M679.444 148.275a204.8 204.8 0 1 0 34.08 81.224 20.48 20.48 0 0 0-40.305 7.373 163.84 163.84 0 1 1-27.239-64.922 20.48 20.48 0 0 0 33.464-23.634zM880.64 880.64a368.64 368.64 0 0 0-617.759-271.729 20.48 20.48 0 1 0 27.69 30.188A326.042 326.042 0 0 1 512 552.96a327.68 327.68 0 0 1 327.68 327.68 20.48 20.48 0 1 0 40.96 0zM229.376 643.891A367.165 367.165 0 0 0 143.36 880.64a20.48 20.48 0 1 0 40.96 0c0-78.07 27.361-151.839 76.472-210.412a20.48 20.48 0 0 0-31.375-26.337z" fill="#2c2c2c" p-id="2731"></path><path d="M491.52 675.84v81.92c0 11.264 9.216 20.48 20.48 20.48 11.469 0 20.48-9.052 20.48-20.48v-81.92c0-11.264-9.216-20.48-20.48-20.48-11.469 0-20.48 9.052-20.48 20.48z m-40.96 0c0-33.915 27.28-61.44 61.44-61.44 33.915 0 61.44 27.607 61.44 61.44v81.92c0 33.915-27.28 61.44-61.44 61.44-33.915 0-61.44-27.607-61.44-61.44v-81.92z" fill="#2c2c2c" p-id="2732"></path><path d="M491.52 798.72v81.92a20.48 20.48 0 1 0 40.96 0v-81.92a20.48 20.48 0 1 0-40.96 0z" fill="#2c2c2c" p-id="2733"></path></svg>