<?xml version="1.0" standalone="no"?><!DOCTYPE svg PUBLIC "-//W3C//DTD SVG 1.1//EN" "http://www.w3.org/Graphics/SVG/1.1/DTD/svg11.dtd"><svg t="1584445105571" class="icon" viewBox="0 0 1024 1024" version="1.1" xmlns="http://www.w3.org/2000/svg" p-id="4533" xmlns:xlink="http://www.w3.org/1999/xlink" width="128" height="128"><defs><style type="text/css"></style></defs><path d="M533.981867 929.245867v61.371733c0 18.432-14.779733 33.3824-32.9728 33.3824a33.1776 33.1776 0 0 1-32.938667-33.3824v-61.371733a100.1472 100.1472 0 0 1-65.911467-94.446934v-111.3088c0-55.330133 44.270933-100.181333 98.850134-100.181333 54.613333 0 98.884267 44.8512 98.884266 100.181333v111.274667a100.1472 100.1472 0 0 1-65.911466 94.481067zM347.682133 1024H255.044267C131.140267 1024 68.266667 966.656 68.266667 853.674667v-58.094934c0-88.746667 127.249067-204.049067 235.2128-263.850666-51.234133-61.44-83.694933-152.610133-83.694934-241.902934C219.784533 121.856 342.664533 0 512 0c169.301333 0 292.181333 121.856 292.181333 289.792 0 89.326933-32.426667 180.497067-83.694933 241.902933C828.484267 591.530667 955.733333 706.798933 955.733333 795.579733v58.094934c0 112.981333-62.8736 170.325333-186.811733 170.325333h-114.210133a33.1776 33.1776 0 0 1-32.9728-33.416533c0-18.432 14.779733-33.3824 32.9728-33.3824h114.210133c100.352 0 120.900267-41.403733 120.900267-103.5264v-58.094934c0-56.7296-127.044267-175.991467-238.4896-223.914666l-51.234134-22.016 43.690667-34.9184c54.784-43.793067 94.5152-138.376533 94.5152-224.938667 0-131.310933-93.047467-222.993067-226.304-222.993067S285.696 158.481067 285.696 289.792c0 86.493867 39.7312 181.077333 94.549333 224.904533l43.656534 34.9184-51.2 22.016c-111.479467 47.9232-238.523733 167.185067-238.523734 223.914667v58.094933c0 62.122667 20.5824 103.5264 120.900267 103.5264h92.603733c18.193067 0 32.9728 14.984533 32.9728 33.416534S365.8752 1024 347.682133 1024z m153.326934-333.9264c18.193067 0 32.9728 15.018667 32.9728 33.416533v111.274667c0 18.432-14.779733 33.416533-32.9728 33.416533a33.211733 33.211733 0 0 1-32.938667-33.3824v-111.3088c0-18.432 14.779733-33.416533 32.938667-33.416533" fill="#FC4936" p-id="4534"></path></svg>