<?xml version="1.0" standalone="no"?><!DOCTYPE svg PUBLIC "-//W3C//DTD SVG 1.1//EN" "http://www.w3.org/Graphics/SVG/1.1/DTD/svg11.dtd"><svg t="1584769326877" class="icon" viewBox="0 0 1024 1024" version="1.1" xmlns="http://www.w3.org/2000/svg" p-id="27058" xmlns:xlink="http://www.w3.org/1999/xlink" width="128" height="128"><defs><style type="text/css"></style></defs><path d="M25.66786213 863.42398947c-13.11798782 0-23.75046215-10.63247434-23.75046216-23.75046216V183.35988412c0-9.94205392 6.2137837-18.7794352 15.6035013-22.23153726 17.9509307-6.48995186 113.9193679-39.21587937 246.618171-39.21587937 84.92171061 0 168.6006645 13.11798782 248.68943223 39.07779529 9.80396985 3.1759339 16.43200579 12.28948332 16.43200578 22.50770541v651.06644808c0 13.11798782-10.63247434 23.75046215-23.61237807 23.75046215-1.79509307 0-3.45210207-0.13808409-5.24719512-0.55233634-29.27382545-6.62803595-134.217728-28.1691528-252.41770246-28.16915278-83.81703796 0-155.75884483 10.90864251-214.03032757 32.31167527-2.62359757 0.96658859-5.3852792 1.51892491-8.28504493 1.5189249z m12.15139924-671.50289225V822.68918518c59.09998723-19.19368743 129.66095328-28.99765728 210.16397326-28.99765728 106.73899562 0 202.84551691 17.12242621 245.51349835 25.95980747V192.47343355c-73.87498403-23.06004175-150.92590196-34.65910465-229.21957663-34.65910466-113.22894749-0.13808409-197.59832178 24.44088257-226.45789498 34.10676833z" fill="#ffffff" p-id="27059"></path><path d="M25.66786213 870.19010949c-16.84625804 0-30.3784981-13.67032415-30.37849812-30.37849809V183.35988412c0-12.70373557 8.00887677-24.1647144 20.02219194-28.58340504 18.08901478-6.62803595 115.02404057-39.63013162 248.9656004-39.63013161 85.75021511 0 169.98150532 13.2560719 250.76069345 39.49204753 12.56565149 4.00443838 21.12686459 15.74158539 20.98878051 28.99765729v651.06644806c0 16.84625804-13.67032415 30.3784981-30.3784981 30.3784981-2.20934532 0-4.55677472-0.27616816-6.76612003-0.69042041-29.13574137-6.62803595-133.3892235-28.0310687-250.89877755-28.03106871-82.98853347 0-154.23991994 10.77055842-211.68289817 31.89742302-3.45210207 1.24275675-6.90420412 1.93317715-10.63247433 1.93317714z m238.60929422-741.51152196c-131.59413043 0-226.59597906 32.31167525-244.2707416 38.80162713-6.62803595 2.48551348-11.04672658 8.83738127-11.04672659 15.87966946v656.31364319c0 9.3897176 7.59462453 16.98434213 16.98434212 16.98434212 2.07126124 0 4.00443838-0.41425225 5.93761555-1.10467266 58.96190314-21.67920092 131.73221452-32.7259275 216.37775698-32.7259275 118.89039486 0 224.38663375 21.67920092 253.79854327 28.44532095a16.97191456 16.97191456 0 0 0 20.71261234-16.57008987V183.63605229c0-7.31845635-4.69485881-13.80840823-11.73714701-16.15583763-79.53643141-25.8217234-162.52496487-38.80162713-246.75625506-38.80162713zM31.05314133 832.07890278v-644.85266436l4.55677472-1.51892491c31.06891852-10.35630617 115.4382928-34.65910465 228.52915622-34.65910465 78.846011 0 156.72543342 11.737147 231.29083786 34.93527283l4.69485879 1.51892489v640.57205781l-8.14696086-1.65700898c-46.39625165-9.66588576-139.87917537-25.8217234-244.13265751-25.8217234-79.67451549 0-149.68314522 9.66588576-208.09271203 28.58340504l-8.69929719 2.89976573z m13.53224007-635.1867786v616.68351157c57.85723049-17.53667845 126.20885123-26.51214381 203.39785323-26.5121438 99.69670741 0 189.589445 14.63691274 238.74737831 24.44088257V197.44446051c-71.80372281-21.817285-146.64529541-32.86401158-222.45345659-32.86401159-106.0485752-0.13808409-186.13734295 21.40303275-219.69177495 32.31167526z" fill="#ffffff" p-id="27060"></path><path d="M518.48995186 863.42398947c-13.11798782 0-23.75046215-10.63247434-23.75046214-23.75046216V183.35988412c0-9.94205392 6.2137837-18.91751926 15.6035013-22.23153726 17.9509307-6.48995186 113.9193679-39.21587937 246.618171-39.21587937 84.92171061 0 168.6006645 13.11798782 248.68943222 39.07779529 9.80396985 3.1759339 16.43200579 12.28948332 16.43200579 22.50770541v651.06644808c0 13.11798782-10.63247434 23.75046215-23.61237807 23.75046215-1.79509307 0-3.45210207-0.13808409-5.24719513-0.55233634-29.27382545-6.62803595-134.217728-28.1691528-252.41770245-28.16915278-83.81703796 0-155.75884483 10.90864251-214.03032758 32.31167527-2.76168163 0.96658859-5.5233633 1.51892491-8.28504494 1.5189249z m12.01331516-671.50289225V822.68918518c59.09998723-19.19368743 129.66095328-28.85957319 210.16397328-28.85957319 106.73899562 0 202.84551691 17.12242621 245.51349833 25.95980748V192.47343355c-73.87498403-23.06004175-150.92590196-34.65910465-229.21957661-34.65910466-113.09086341-0.13808409-197.59832178 24.44088257-226.457895 34.10676833zM115.14634747 333.31919749c-2.62359757-9.94205392 3.59018613-20.02219194 13.53224006-22.09345316 18.08901478-3.86635431 48.46751289-9.3897176 85.19787878-12.97990374 71.80372281-6.76612003 134.77006433-2.76168163 187.79435193 12.01331516 9.94205392 2.76168163 15.6035013 13.2560719 12.15139924 23.06004174-3.0378498 8.97546534-12.56565149 14.08457639-21.67920091 11.46097884-97.4873621-27.06448014-213.61607532-7.45654045-256.14597269 1.51892491-9.11354943 1.93317715-18.36518295-3.72827022-20.85069641-12.97990375z m0 145.95487501c-2.62359757-9.94205392 3.59018613-20.02219194 13.53224006-22.09345318 18.08901478-3.86635431 48.46751289-9.3897176 85.19787878-12.97990374 71.80372281-6.76612003 134.77006433-2.76168163 187.79435193 12.01331517 9.94205392 2.76168163 15.6035013 13.2560719 12.15139924 23.06004175-3.0378498 8.97546534-12.56565149 14.08457639-21.67920091 11.46097882-97.4873621-27.06448014-213.61607532-7.45654045-256.14597269 1.51892491-9.11354943 1.93317715-18.36518295-3.72827022-20.85069641-12.97990373z m0 135.04623248c-2.62359757-9.94205392 3.59018613-20.02219194 13.53224006-22.09345316 18.08901478-3.86635431 48.46751289-9.3897176 85.19787878-12.97990373 71.80372281-6.76612003 134.77006433-2.76168163 187.79435193 12.01331516 9.94205392 2.76168163 15.6035013 13.2560719 12.15139924 23.06004173-3.0378498 8.97546534-12.56565149 14.08457639-21.67920091 11.46097884-97.4873621-27.06448014-213.61607532-7.45654045-256.14597269 1.51892492-9.11354943 1.93317715-18.36518295-3.72827022-20.85069641-12.97990376z" fill="#ffffff" p-id="27061"></path><path d="M518.48995186 870.19010949c-16.84625804 0-30.3784981-13.67032415-30.3784981-30.37849809V183.35988412c0-12.70373557 8.00887677-24.1647144 20.02219193-28.58340504 18.08901478-6.62803595 115.02404057-39.63013162 248.96560039-39.63013161 85.75021511 0 169.98150532 13.2560719 250.76069347 39.49204753 12.56565149 4.00443838 21.12686459 15.74158539 20.98878051 28.99765729v651.06644806c0 16.84625804-13.67032415 30.3784981-30.3784981 30.3784981-2.20934532 0-4.55677472-0.27616816-6.76612004-0.69042041-29.13574137-6.62803595-133.52730758-28.0310687-250.89877754-28.03106871-82.98853347 0-154.23991994 10.77055842-211.68289817 31.89742302-3.59018613 1.24275675-7.04228819 1.93317715-10.63247435 1.93317714z m238.47121016-741.51152196c-131.59413043 0-226.59597906 32.31167525-244.2707416 38.80162713-6.62803595 2.48551348-11.04672658 8.83738127-11.04672659 15.87966946v656.31364319c0 9.3897176 7.59462453 16.98434213 16.98434212 16.98434212 2.07126124 0 4.00443838-0.41425225 5.79953146-1.10467266 58.96190314-21.67920092 131.8702986-32.7259275 216.37775697-32.7259275 118.75231078 0 224.38663375 21.67920092 253.79854327 28.30723686a16.97191456 16.97191456 0 0 0 20.71261235-16.57008986V183.63605229c0-7.31845635-4.69485881-13.80840823-11.737147-16.15583763-79.39834732-25.8217234-162.3868808-38.80162713-246.61817098-38.80162713zM523.737147 832.07890278v-644.85266436l4.55677472-1.51892491c31.06891852-10.35630617 115.4382928-34.65910465 228.5291562-34.65910465 78.846011 0 156.72543342 11.737147 231.29083787 34.93527283l4.69485879 1.51892489v640.57205781l-8.14696085-1.65700898c-46.39625165-9.66588576-139.87917537-25.8217234-244.13265752-25.8217234-79.67451549 0-149.68314522 9.66588576-208.09271203 28.58340504l-8.69929718 2.89976573z m13.53224006-635.1867786v616.68351157c57.85723049-17.53667845 126.20885123-26.51214381 203.39785324-26.5121438 99.69670741 0 189.589445 14.63691274 238.7473783 24.44088257V197.44446051c-71.80372281-21.817285-146.64529541-32.86401158-222.45345658-32.86401159-106.0485752-0.13808409-186.13734295 21.40303275-219.69177496 32.31167526zM132.40685775 634.34249692c-10.90864251 0-20.85069643-7.31845635-23.75046217-18.36518295-1.79509307-6.62803595-0.69042042-13.39415599 2.76168166-19.19368744 3.59018613-5.79953147 9.25163351-9.80396985 15.87966946-11.18481067 19.05560336-4.00443838 49.29601739-9.52780169 86.02638327-13.11798781 72.4941432-6.90420412 136.42707332-2.76168163 190.27986543 12.15139925 6.48995186 1.79509307 12.15139925 6.35186779 15.32733313 12.28948331 3.1759339 6.07569962 3.72827022 12.97990373 1.5189249 19.46985561-4.28060655 12.28948332-17.39859437 19.33177153-29.82616178 15.87966948-95.41610087-26.51214381-208.64504835-7.7327086-252.97003878 1.65700898-1.79509307 0.27616816-3.45210207 0.41425225-5.24719512 0.41425224z m146.78337949-51.5053627c-20.57452827 0-42.1156451 1.10467265-64.48526643 3.1759339-36.03994548 3.45210207-65.86610725 8.83738127-84.50745838 12.84181965-3.0378498 0.69042042-5.5233633 2.48551348-7.18037228 5.10911105-1.65700898 2.62359757-2.07126124 5.66144737-1.24275674 8.69929718 1.51892491 5.79953147 7.31845635 9.25163351 13.11798782 8.00887677 45.291579-9.52780169 161.00603997-28.72148912 259.32190656-1.38084082 5.66144737 1.51892491 11.59906291-1.51892491 13.39415599-7.18037228 0.96658859-2.89976573 0.69042042-6.07569962-0.69042041-8.83738127-1.51892491-2.76168163-3.86635431-4.69485881-6.90420412-5.52336329-35.76377732-9.94205392-76.22241343-14.91308089-120.82357201-14.91308089z m-146.78337949-83.40278571c-11.04672658 0-20.85069643-7.31845635-23.75046217-18.36518294-1.79509307-6.62803595-0.69042042-13.53224006 2.89976574-19.19368744 3.59018613-5.79953147 9.25163351-9.80396985 15.87966946-11.18481066 19.05560336-4.00443838 49.29601739-9.52780169 86.02638329-13.11798782 72.4941432-6.90420412 136.42707332-2.76168163 190.2798654 12.15139923 6.48995186 1.79509307 12.15139925 6.35186779 15.32733313 12.28948333 3.1759339 6.07569962 3.72827022 12.97990373 1.51892491 19.46985559-4.28060655 12.28948332-17.26051028 19.33177153-29.82616178 15.87966946-95.41610087-26.51214381-208.64504835-7.7327086-252.97003878 1.65700901-1.93317715 0.27616816-3.59018613 0.41425225-5.3852792 0.41425224z m146.78337949-51.64344678c-20.57452827 0-42.1156451 1.10467265-64.48526643 3.17593389-36.03994548 3.45210207-65.86610725 8.83738127-84.50745838 12.84181964-3.0378498 0.69042042-5.5233633 2.48551348-7.18037228 5.10911105-1.65700898 2.62359757-2.07126124 5.66144737-1.24275674 8.69929719 1.51892491 5.79953147 7.31845635 9.25163351 13.11798782 8.00887679 45.291579-9.52780169 161.00603997-28.72148912 259.32190656-1.38084082 5.66144737 1.51892491 11.59906291-1.51892491 13.39415599-7.18037229 0.96658859-2.89976573 0.69042042-6.07569962-0.69042041-8.83738126-1.51892491-2.76168163-3.86635431-4.69485881-6.90420412-5.52336331-35.76377732-9.94205392-76.22241343-14.91308089-120.82357201-14.91308088z m-146.78337949-94.4495123c-11.04672658 0-20.85069643-7.31845635-23.75046217-18.36518294-1.79509307-6.76612003-0.69042042-13.53224006 2.89976574-19.19368744 3.59018613-5.79953147 9.25163351-9.80396985 15.87966946-11.18481067 18.91751926-4.00443838 49.29601739-9.52780169 86.02638329-13.11798781 72.4941432-6.90420412 136.42707332-2.76168163 190.2798654 12.15139924 6.48995186 1.79509307 12.15139925 6.35186779 15.32733313 12.28948332 3.1759339 6.07569962 3.72827022 12.97990373 1.51892491 19.4698556-4.28060655 12.28948332-17.39859437 19.33177153-29.82616178 15.87966946-95.41610087-26.51214381-208.64504835-7.7327086-252.97003878 1.65700899-1.93317715 0.27616816-3.59018613 0.41425225-5.3852792 0.41425225z m146.78337949-51.5053627c-20.57452827 0-42.1156451 1.10467265-64.48526643 3.1759339-36.03994548 3.45210207-65.86610725 8.83738127-84.50745838 12.84181966-3.0378498 0.69042042-5.5233633 2.48551348-7.18037228 5.10911103-1.65700898 2.62359757-2.07126124 5.66144737-1.24275674 8.69929719 1.51892491 5.79953147 7.31845635 9.25163351 13.11798782 8.00887677 45.291579-9.52780169 161.00603997-28.72148912 259.32190656-1.38084082 5.66144737 1.51892491 11.59906291-1.51892491 13.39415599-7.18037228 0.96658859-2.89976573 0.69042042-6.07569962-0.69042041-8.83738127-1.51892491-2.76168163-3.86635431-4.69485881-6.90420412-5.52336329-35.76377732-9.94205392-76.22241343-14.91308089-120.82357201-14.91308089z" fill="#ffffff" p-id="27062"></path><path d="M608.79694169 333.31919749c-2.62359757-9.94205392 3.59018613-20.02219194 13.53224007-22.09345316 18.08901478-3.86635431 48.46751289-9.3897176 85.19787877-12.97990374 71.80372281-6.76612003 134.77006433-2.76168163 187.79435194 12.01331516 9.94205392 2.76168163 15.6035013 13.2560719 12.15139924 23.06004174-3.0378498 8.97546534-12.56565149 14.08457639-21.6792009 11.46097884-97.4873621-27.06448014-213.61607532-7.45654045-256.14597268 1.51892491-9.25163351 1.93317715-18.36518295-3.72827022-20.85069644-12.97990375z m0 145.95487501c-2.62359757-9.94205392 3.59018613-20.02219194 13.53224007-22.09345318 18.08901478-3.86635431 48.46751289-9.3897176 85.19787877-12.97990374 71.80372281-6.76612003 134.77006433-2.76168163 187.79435194 12.01331517 9.94205392 2.76168163 15.6035013 13.2560719 12.15139924 23.06004175-3.0378498 8.97546534-12.56565149 14.08457639-21.6792009 11.46097882-97.4873621-27.06448014-213.61607532-7.45654045-256.14597268 1.51892491-9.25163351 1.93317715-18.36518295-3.72827022-20.85069644-12.97990373z m0 135.04623248c-2.62359757-9.94205392 3.59018613-20.02219194 13.53224007-22.09345316 18.08901478-3.86635431 48.46751289-9.3897176 85.19787877-12.97990373 71.80372281-6.76612003 134.77006433-2.76168163 187.79435194 12.01331516 9.94205392 2.76168163 15.6035013 13.2560719 12.15139924 23.06004173-3.0378498 8.97546534-12.56565149 14.08457639-21.6792009 11.46097884-97.4873621-27.06448014-213.61607532-7.45654045-256.14597268 1.51892492-9.25163351 1.93317715-18.36518295-3.72827022-20.85069644-12.97990376z" fill="#ffffff" p-id="27063"></path><path d="M626.05745199 634.34249692c-11.04672658 0-20.85069643-7.31845635-23.88854624-18.36518295l-0.13808409-0.27616817c-1.65700898-6.48995186-0.55233633-13.2560719 2.89976574-18.91751927 3.59018613-5.79953147 9.25163351-9.80396985 15.87966946-11.18481067 19.05560336-4.00443838 49.29601739-9.52780169 86.02638328-13.11798781 72.4941432-6.90420412 136.42707332-2.76168163 190.27986541 12.15139925 6.48995186 1.79509307 12.15139925 6.35186779 15.32733313 12.28948331 3.1759339 6.07569962 3.72827022 12.97990373 1.5189249 19.46985561-4.28060655 12.28948332-17.26051028 19.33177153-29.82616178 15.74158539-95.41610087-26.51214381-208.64504835-7.7327086-252.97003878 1.65700898-1.65700898 0.41425225-3.45210207 0.55233633-5.10911103 0.55233633z m-10.63247436-21.54111683c1.65700898 5.66144737 7.31845635 9.11354943 12.97990376 7.87079268 45.291579-9.52780169 161.00603997-28.72148912 259.32190656-1.38084082 5.66144737 1.51892491 11.59906291-1.51892491 13.39415599-7.18037228 0.96658859-2.89976573 0.69042042-6.07569962-0.69042041-8.83738127-1.51892491-2.76168163-3.86635431-4.69485881-6.90420412-5.52336329-52.05769902-14.49882864-114.47170423-18.50326702-185.30883846-11.73714699-36.03994548 3.45210207-65.86610725 8.83738127-84.50745837 12.84181965-3.0378498 0.69042042-5.5233633 2.48551348-7.18037227 5.10911105-1.65700898 2.62359757-2.07126124 5.66144737-1.24275674 8.69929718l0.13808406 0.13808409z m10.63247436-113.36703158c-11.04672658 0-20.85069643-7.31845635-23.75046216-18.36518294l-0.13808408-0.27616817c-1.65700898-6.48995186-0.55233633-13.2560719 2.89976572-18.91751927 3.59018613-5.79953147 9.25163351-9.80396985 15.87966947-11.18481066 19.05560336-4.00443838 49.29601739-9.52780169 86.02638327-13.11798782 72.4941432-6.90420412 136.42707332-2.76168163 190.27986542 12.15139923 6.48995186 1.79509307 12.15139925 6.35186779 15.32733313 12.28948333 3.1759339 6.07569962 3.72827022 12.97990373 1.51892491 19.46985559-4.14252247 12.28948332-17.39859437 19.33177153-29.82616177 15.87966946-95.41610087-26.51214381-208.64504835-7.7327086-252.97003879 1.65700901-1.79509307 0.27616816-3.59018613 0.41425225-5.24719512 0.41425224z m-10.63247436-21.67920093c1.65700898 5.66144737 7.31845635 9.11354943 12.97990376 7.87079271 45.291579-9.52780169 161.00603997-28.72148912 259.32190656-1.38084082 5.66144737 1.51892491 11.59906291-1.51892491 13.39415599-7.18037229 0.96658859-2.89976573 0.69042042-6.07569962-0.69042041-8.83738126-1.51892491-2.76168163-3.86635431-4.69485881-6.90420412-5.52336331-52.19578311-14.49882864-114.47170423-18.50326702-185.30883846-11.73714699-36.03994548 3.45210207-65.86610725 8.83738127-84.50745837 12.84181964-3.0378498 0.69042042-5.5233633 2.48551348-7.18037227 5.10911105s-2.07126124 5.66144737-1.24275674 8.69929719l0.13808406 0.13808408z m10.63247436-124.41375815c-11.04672658 0-20.85069643-7.31845635-23.75046216-18.36518294v-0.27616818c-1.65700898-6.48995186-0.69042042-13.2560719 2.89976572-19.05560334 3.59018613-5.79953147 9.25163351-9.80396985 15.87966948-11.18481067 19.05560336-4.00443838 49.29601739-9.52780169 86.02638327-13.11798783 72.4941432-6.90420412 136.42707332-2.76168163 190.27986542 12.15139924 6.48995186 1.79509307 12.15139925 6.35186779 15.32733313 12.28948334 3.1759339 6.07569962 3.72827022 12.97990373 1.5189249 19.46985561-4.14252247 12.28948332-17.26051028 19.33177153-29.82616178 15.87966946-95.41610087-26.51214381-208.64504835-7.7327086-252.97003877 1.65700898-1.93317715 0.41425225-3.72827022 0.55233633-5.38527921 0.55233633z m-10.63247436-21.54111684c1.51892491 5.66144737 7.31845635 9.11354943 13.11798784 7.87079269 45.291579-9.52780169 161.00603997-28.72148912 259.32190656-1.38084082 5.66144737 1.51892491 11.59906291-1.51892491 13.39415598-7.18037228 0.96658859-2.89976573 0.69042042-6.07569962-0.6904204-8.83738127-1.51892491-2.76168163-3.86635431-4.69485881-6.90420412-5.52336329-52.19578311-14.49882864-114.47170423-18.50326702-185.30883846-11.73714699-36.03994548 3.45210207-65.86610725 8.83738127-84.50745836 12.84181966-3.0378498 0.69042042-5.5233633 2.48551348-7.18037229 5.10911103s-2.07126124 5.66144737-1.24275675 8.69929719v0.13808408z" fill="#ffffff" p-id="27064"></path></svg>