<?xml version="1.0" standalone="no"?><!DOCTYPE svg PUBLIC "-//W3C//DTD SVG 1.1//EN" "http://www.w3.org/Graphics/SVG/1.1/DTD/svg11.dtd"><svg t="1585570299962" class="icon" viewBox="0 0 1024 1024" version="1.1" xmlns="http://www.w3.org/2000/svg" p-id="14651" xmlns:xlink="http://www.w3.org/1999/xlink" width="128" height="128"><defs><style type="text/css"></style></defs><path d="M170.496 827.648v-112.64h53.248c17.92 0 32.256-14.336 32.256-32.256s-14.336-32.256-32.256-32.256H170.496v-106.496h53.248c17.92 0 32.256-14.336 32.256-32.256s-14.336-32.256-32.256-32.256H170.496v-105.984h53.248c17.92 0 32.256-14.336 32.256-32.256s-14.336-32.256-32.256-32.256H170.496v-112.64c0-32.256 26.112-57.856 57.856-57.856h70.144v746.496H228.864c-32.256 0.512-58.368-25.6-58.368-57.344z m683.008 0c0 32.256-26.112 57.856-57.856 57.856H362.496V139.008h432.64c32.256 0 57.856 26.112 57.856 57.856l0.512 630.784z m-112.0768-414.2592V277.2992c0-6.1952-5.0176-11.2128-11.2128-11.2128H485.7856c-6.1952 0-11.2128 5.0176-11.2128 11.2128v136.0896c0 6.1952 5.0176 11.2128 11.2128 11.2128h244.4288c6.1952 0.0512 11.2128-5.0176 11.2128-11.2128z" p-id="14652"></path></svg>