<?xml version="1.0" standalone="no"?><!DOCTYPE svg PUBLIC "-//W3C//DTD SVG 1.1//EN" "http://www.w3.org/Graphics/SVG/1.1/DTD/svg11.dtd"><svg t="1585570227534" class="icon" viewBox="0 0 1024 1024" version="1.1" xmlns="http://www.w3.org/2000/svg" p-id="11932" xmlns:xlink="http://www.w3.org/1999/xlink" width="128" height="128"><defs><style type="text/css"></style></defs><path d="M861.542 481.28l35.84-28.672a30.72 30.72 0 0 0-38.348-48.026l-36.148 28.877L769.23 265.83a91.853 91.853 0 0 0-87.808-64.05H347.29a91.853 91.853 0 0 0-87.757 64.05l-53.76 167.783-35.84-28.877a30.72 30.72 0 0 0-38.349 48.026l35.84 28.672a125.952 125.952 0 0 0-53.504 102.912v78.028A126.106 126.106 0 0 0 239.667 788.48h3.328v24.064a51.2 51.2 0 1 0 102.4 0V788.48h337.92v24.064a51.2 51.2 0 0 0 102.4 0V788.48h3.328a126.106 126.106 0 0 0 125.952-125.952v-78.182a125.9 125.9 0 0 0-53.453-103.066z m-547.89 51.2a88.474 88.474 0 1 1-88.372 88.269 88.576 88.576 0 0 1 88.371-88.269zM715.11 709.376a88.474 88.474 0 1 1 88.423-88.422 88.576 88.576 0 0 1-88.423 88.217zM318.054 284.57a30.72 30.72 0 0 1 29.236-21.35h334.13a30.72 30.72 0 0 1 29.287 21.35l54.58 170.393h-501.76z" p-id="11933"></path><path d="M340.685 620.749a27.034 27.034 0 1 1-27.034-26.829 27.085 27.085 0 0 1 27.034 26.829z m401.408 0a27.034 27.034 0 1 1-26.983-27.034 27.034 27.034 0 0 1 26.983 27.034z" p-id="11934"></path></svg>