<?xml version="1.0" standalone="no"?><!DOCTYPE svg PUBLIC "-//W3C//DTD SVG 1.1//EN" "http://www.w3.org/Graphics/SVG/1.1/DTD/svg11.dtd"><svg t="1585483198176" class="icon" viewBox="0 0 1024 1024" version="1.1" xmlns="http://www.w3.org/2000/svg" p-id="12493" xmlns:xlink="http://www.w3.org/1999/xlink" width="128" height="128"><defs><style type="text/css"></style></defs><path d="M490.155 696.835c5.703 5.703 13.229 8.617 20.753 8.496 7.524 0 15.05-2.791 20.875-8.496l179.739-179.739c11.408-11.408 11.408-29.855 0-41.142-5.703-5.703-13.107-8.496-20.631-8.496s-14.928 2.791-20.631 8.496L540.038 606.176V122.787c0-16.142-12.986-29.127-29.127-29.127s-29.127 12.986-29.127 29.127v483.267L351.562 475.832c-5.703-5.703-13.107-8.496-20.631-8.496s-14.928 2.791-20.631 8.496c-11.408 11.408-11.408 29.855 0 41.142l179.86 179.86z" fill="#ffffff" p-id="12494"></path><path d="M883.007 497.194a29.057 29.057 0 0 0-29.127 29.127c0 189.084-153.767 342.85-342.85 342.85s-342.85-153.767-342.85-342.85c0-16.142-12.986-29.127-29.127-29.127s-29.127 12.986-29.127 29.127c0 54.128 10.559 106.678 31.554 156.194 20.146 47.818 49.152 90.658 85.925 127.553 36.773 36.773 79.735 65.778 127.553 85.925 49.516 20.875 102.066 31.554 156.194 31.554 54.128 0 106.678-10.559 156.194-31.554 47.818-20.146 90.658-49.152 127.553-85.925 36.773-36.773 65.778-79.735 85.925-127.553 20.875-49.516 31.554-102.066 31.554-156.194-0.242-16.02-13.349-29.127-29.37-29.127z" fill="#ffffff" p-id="12495"></path></svg>