<?xml version="1.0" standalone="no"?><!DOCTYPE svg PUBLIC "-//W3C//DTD SVG 1.1//EN" "http://www.w3.org/Graphics/SVG/1.1/DTD/svg11.dtd"><svg t="1585570176616" class="icon" viewBox="0 0 1024 1024" version="1.1" xmlns="http://www.w3.org/2000/svg" p-id="10679" xmlns:xlink="http://www.w3.org/1999/xlink" width="128" height="128"><defs><style type="text/css"></style></defs><path d="M894.29621 151.5357c-0.660614 0-1.315476 0.03164-1.966502 0.076704l0-0.00767c0 0-0.033558 0.005753-0.076704 0.013423-1.427655 0.103551-2.825588 0.314487-4.186127 0.625139-22.901933 3.034607-135.424959 12.962037-268.717543-60.701723-4.701963-3.558112-10.559281-5.67227-16.910382-5.67227-15.489438 0-28.048779 12.557423-28.048779 28.04782l-0.014382 0 0 467.273828c-61.086202-53.780135-163.676045-72.91973-266.686801-42.098097C165.343401 581.724045 76.122127 703.673049 108.405933 811.474936s173.851805 160.63185 316.197393 118.000659c121.328659-36.331865 204.036794-130.277154 205.848929-223.976989l0.050816 0L630.503071 158.761228c50.874966 22.2557 141.442397 51.351491 263.154577 48.558502l-0.000959-0.021094c0.213813 0.004794 0.424749 0.0163 0.639521 0.0163 15.402187 0 27.889618-12.485513 27.889618-27.888659C922.185828 164.021213 909.698397 151.5357 894.29621 151.5357zM410.089948 881.68797c-107.004165 32.045064-223.103521-7.577408-247.371745-88.614352-24.268225-81.035985 52.482876-172.798082 159.486082-204.843146 107.004165-32.018217 223.116944 6.833378 247.383251 87.869363C593.858637 757.134861 517.094112 849.640989 410.089948 881.68797z" p-id="10680" fill="#2c2c2c"></path></svg>