<?xml version="1.0" standalone="no"?><!DOCTYPE svg PUBLIC "-//W3C//DTD SVG 1.1//EN" "http://www.w3.org/Graphics/SVG/1.1/DTD/svg11.dtd"><svg t="1585483217470" class="icon" viewBox="0 0 1024 1024" version="1.1" xmlns="http://www.w3.org/2000/svg" p-id="12754" xmlns:xlink="http://www.w3.org/1999/xlink" width="128" height="128"><defs><style type="text/css"></style></defs><path d="M192.736 607.744A327.616 327.616 0 0 1 176 504c0-181.12 146.88-328 328-328S832 322.88 832 504c0 164.992-122.56 303.744-284.608 325.152a24 24 0 1 0 6.272 47.584C739.52 852.192 880 693.152 880 504 880 296.32 711.68 128 504 128S128 296.32 128 504c0 40.864 6.528 80.896 19.2 118.944a24 24 0 1 0 45.536-15.2z" p-id="12755" fill="#ffffff"></path><path d="M314.208 567.264a200 200 0 1 1 216.256 135.008 24 24 0 0 0 6.272 47.584A248.032 248.032 0 0 0 504 256a248 248 0 0 0-235.328 326.432 24 24 0 0 0 45.536-15.168z" p-id="12756" fill="#ffffff"></path><path d="M463.392 797.376a92.8 92.8 0 0 1 0.608 10.624c0 58.496-54.592 104-120 104S224 866.496 224 808 278.592 704 344 704c26.816 0 51.84 7.68 72 20.704V472a24 24 0 0 1 13.28-21.44l128-64a24 24 0 0 1 34.72 21.44v96a24 24 0 1 1-48 0v-57.152l-80 40v305.152a24.064 24.064 0 0 1-0.608 5.376zM344 864c40.64 0 72-26.144 72-56s-31.36-56-72-56-72 26.144-72 56S303.36 864 344 864z" p-id="12757" fill="#ffffff"></path><path d="M450.72 589.44l128-64a24 24 0 1 0-21.44-42.88l-128 64a24 24 0 1 0 21.44 42.88z" p-id="12758" fill="#ffffff"></path></svg>