<?xml version="1.0" standalone="no"?><!DOCTYPE svg PUBLIC "-//W3C//DTD SVG 1.1//EN" "http://www.w3.org/Graphics/SVG/1.1/DTD/svg11.dtd"><svg t="1585483265451" class="icon" viewBox="0 0 1024 1024" version="1.1" xmlns="http://www.w3.org/2000/svg" p-id="13962" xmlns:xlink="http://www.w3.org/1999/xlink" width="128" height="128"><defs><style type="text/css"></style></defs><path d="M347.095229 389.749702l0 262.067694c-4.050246 12.477172-15.782451 21.523199-29.594015 21.523199-17.152658 0-31.108508-13.94971-31.108508-31.102369 0-17.153682 13.95585-31.101345 31.108508-31.101345 13.46364 0 24.373107-10.914584 24.373107-24.373107 0-13.455453-10.909467-24.372084-24.373107-24.372084-44.032866 0-79.854722 35.812647-79.854722 79.846536 0 44.032866 35.821857 79.846536 79.854722 79.846536 44.033889 0 79.856769-35.81367 79.856769-79.846536 0-2.979868-0.537236-5.833869-1.515516-8.472975L395.842467 389.749702c0-12.869099 12.424984-19.596314 24.691355-19.596314 1.006933 0 2.023076-0.061398 3.021823-0.190335l251.857145-31.480992c12.202926 0.649799 21.929452 10.789741 21.929452 23.151279l0 280.604886c0 17.152658-13.95585 31.102369-31.109532 31.102369-17.152658 0-31.100322-13.94971-31.100322-31.102369 0-17.153682 13.947663-31.101345 31.100322-31.101345 13.465686 0 24.373107-10.914584 24.373107-24.373107 0-13.455453-10.907421-24.372084-24.373107-24.372084-44.024679 0-79.846536 35.812647-79.846536 79.846536 0 44.032866 35.821857 79.846536 79.846536 79.846536 34.532491 0 64.005756-22.028713 75.121931-52.769854 2.974751-4.041036 4.734838-9.030677 4.734838-14.430664L746.089479 361.634364c0-39.669488-32.266891-71.930239-71.930239-71.930239-1.006933 0-2.023076 0.063445-3.021823 0.190335L418.883229 321.423547C378.497427 322.217632 347.095229 351.938538 347.095229 389.749702z" p-id="13963" fill="#ffffff"></path><path d="M935.99669 372.280842c-4.117784-12.805654-17.836227-19.961634-30.656207-15.741519-12.822027 4.109598-19.875676 17.836227-15.756869 30.658254 12.606109 39.239699 18.993586 80.243579 18.993586 121.864512 0 219.513506-178.586374 398.088624-398.09681 398.088624s-398.09681-178.575118-398.09681-398.088624C112.384603 289.546535 290.969954 110.970394 510.48039 110.970394c35.877115 0 71.429843 4.77577 105.680924 14.170744 12.94073 3.63376 26.387997-4.047176 29.951149-17.043165 3.570315-12.979616-4.062526-26.402323-17.050328-29.958312C590.613452 67.570955 550.714743 62.223157 510.48039 62.223157c-246.390643 0-446.843024 200.458521-446.843024 446.837908 0 246.378363 200.452381 446.834838 446.843024 446.834838s446.843024-200.457498 446.843024-446.834838C957.323415 462.378859 950.151062 416.360779 935.99669 372.280842z" p-id="13964" fill="#ffffff"></path><path d="M694.16283 215.172641m-18.368346 0a17.95 17.95 0 1 0 36.736693 0 17.95 17.95 0 1 0-36.736693 0Z" p-id="13965" fill="#ffffff"></path><path d="M795.187711 261.092483m-27.551496 0a26.924 26.924 0 1 0 55.102992 0 26.924 26.924 0 1 0-55.102992 0Z" p-id="13966" fill="#ffffff"></path><path d="M822.741253 141.702326m-36.735669 0a35.899 35.899 0 1 0 73.471338 0 35.899 35.899 0 1 0-73.471338 0Z" p-id="13967" fill="#ffffff"></path></svg>