<?xml version="1.0" standalone="no"?><!DOCTYPE svg PUBLIC "-//W3C//DTD SVG 1.1//EN" "http://www.w3.org/Graphics/SVG/1.1/DTD/svg11.dtd"><svg t="1584343817964" class="icon" viewBox="0 0 1024 1024" version="1.1" xmlns="http://www.w3.org/2000/svg" p-id="1689" xmlns:xlink="http://www.w3.org/1999/xlink" width="16" height="16"><defs><style type="text/css"></style></defs><path d="M511.68 512.56m-446.46 0a446.46 446.46 0 1 0 892.92 0 446.46 446.46 0 1 0-892.92 0Z" fill="#FF1D12" p-id="1690" data-spm-anchor-id="a313x.7781069.0.i7" class=""></path><path d="M274.27 290.28m117.21 0l240.41 0q117.21 0 117.21 117.21l0 240.41q0 117.21-117.21 117.21l-240.41 0q-117.21 0-117.21-117.21l0-240.41q0-117.21 117.21-117.21Z" fill="#ffffff" p-id="1691" data-spm-anchor-id="a313x.7781069.0.i5" class=""></path><path d="M306.8 405.61a90.86 90.86 0 0 1 90.85-90.85h228.06a90.85 90.85 0 0 1 90.85 90.85" fill="#FF1D12" p-id="1692" data-spm-anchor-id="a313x.7781069.0.i3" class=""></path><path d="M404.12 260m13.67 0l6.14 0q13.67 0 13.67 13.67l0 61.95q0 13.67-13.67 13.67l-6.14 0q-13.67 0-13.67-13.67l0-61.95q0-13.67 13.67-13.67Z" fill="#FF1D12" p-id="1693"></path><path d="M585.77 260m13.67 0l6.14 0q13.67 0 13.67 13.67l0 61.95q0 13.67-13.67 13.67l-6.14 0q-13.67 0-13.67-13.67l0-61.95q0-13.67 13.67-13.67Z" fill="#FF1D12" p-id="1694"></path><path d="M443 590.89a25.58 25.58 0 0 0 16.59-5.65q6.94-5.65 7-16.23a19.36 19.36 0 0 0-5.59-13.86q-5.55-5.82-15-5.81a26.71 26.71 0 0 0-10.52 1.78 16.88 16.88 0 0 0-6.54 4.71 35.54 35.54 0 0 0-4.55 7.53q-2.15 4.6-3.93 8.69a7.35 7.35 0 0 1-3.76 3.45 14.82 14.82 0 0 1-6.28 1.26 10.89 10.89 0 0 1-7.7-3.4 12.08 12.08 0 0 1-3.5-9.06 24 24 0 0 1 3.29-11.46 41.93 41.93 0 0 1 9.63-11.46 48.63 48.63 0 0 1 15.86-8.74 63.52 63.52 0 0 1 21-3.29 58.69 58.69 0 0 1 18.53 2.77 43.19 43.19 0 0 1 14.54 8 34.48 34.48 0 0 1 9.32 12.14 35.52 35.52 0 0 1 3.14 14.86q0 10.47-4.55 18a60.57 60.57 0 0 1-13 14.6 57.6 57.6 0 0 1 13.76 10.05A37.57 37.57 0 0 1 502 637a46.17 46.17 0 0 1-3.82 18.42 47.11 47.11 0 0 1-11.25 15.86 53.54 53.54 0 0 1-17.64 10.88 62.26 62.26 0 0 1-22.55 3.93 54 54 0 0 1-22.5-4.5 51.52 51.52 0 0 1-26.12-25.22q-3.29-7.23-3.29-11.94a12.87 12.87 0 0 1 3.92-9.78 13.68 13.68 0 0 1 9.75-3.65 10.44 10.44 0 0 1 5.65 1.73 8.19 8.19 0 0 1 3.56 4.13q5.44 14.55 11.67 21.62t17.53 7.06a26.33 26.33 0 0 0 22.45-12.66 27 27 0 0 0 3.92-14.55q0-12.24-6.69-19.21t-18.63-7q-2.1 0-6.49 0.42t-5.66 0.42c-3.83 0-6.8-1-8.89-2.88a10.31 10.31 0 0 1-3.14-8 9.94 9.94 0 0 1 3.77-8.11q3.76-3.09 11.2-3.09zM628.91 608.26a179.13 179.13 0 0 1-2.09 29.52 69 69 0 0 1-7.74 22.39 51.44 51.44 0 0 1-18.42 19.05 50 50 0 0 1-53.64-2.3q-12.62-9-19-24.91a92.61 92.61 0 0 1-4.76-19.21 160 160 0 0 1-1.52-22.8 218.17 218.17 0 0 1 1.68-28.47 93.85 93.85 0 0 1 5.23-21.77q6.17-15.06 18-23t28.1-7.9a52.57 52.57 0 0 1 19.57 3.5 44.71 44.71 0 0 1 15.44 10.26A58.75 58.75 0 0 1 621 559.38q7.91 17.28 7.91 48.88z m-28.67-2.09q0-19.15-2.31-31.35t-7.74-18.42q-5.45-6.23-15.07-6.23-13.82 0-19.21 13.92T550.52 607q0 19.66 2.31 32.23t7.74 19q5.45 6.43 14.76 6.43 9.63 0 15.07-6.69t7.6-19.15q2.23-12.45 2.24-32.65z" fill="#FF1D12" p-id="1695" data-spm-anchor-id="a313x.7781069.0.i4" class=""></path></svg>