<?xml version="1.0" standalone="no"?><!DOCTYPE svg PUBLIC "-//W3C//DTD SVG 1.1//EN" "http://www.w3.org/Graphics/SVG/1.1/DTD/svg11.dtd"><svg t="1584344258344" class="icon" viewBox="0 0 1577 1024" version="1.1" xmlns="http://www.w3.org/2000/svg" p-id="6704" data-spm-anchor-id="a313x.7781069.0.i21" xmlns:xlink="http://www.w3.org/1999/xlink" width="24.640625" height="16"><defs><style type="text/css"></style></defs><path d="M506.582493 85.375184c0-15.819519 12.555174-28.500245 28.374693-28.500245h113.875429c15.693968 0 28.374693 12.680726 28.374694 28.500245v853.249632c0 15.819519-12.555174 28.500245-28.374694 28.500245h-113.875429c-7.533104 0-14.815105-3.013242-20.088278-8.286415-5.273173-5.273173-8.286415-12.555174-8.286415-20.088278V85.375184z m-57.000491 0v853.249632c0 47.207455 38.167729 85.375184 85.249632 85.375184h113.875429c22.599313 0 44.319765-8.914174 60.390388-24.984796 15.945071-16.070623 24.984796-37.791074 24.859245-60.390388V85.375184c0-47.207455-38.167729-85.375184-85.249633-85.375184H534.831634c-22.599313 0-44.319765 8.914174-60.390387 24.984796-15.819519 15.945071-24.859245 37.665522-24.859245 60.390388zM165.207309 426.373713c0-7.533104 3.013242-14.689554 8.286415-19.962727 5.273173-5.273173 12.555174-8.286415 20.088278-8.160863h113.875429c15.693968 0 28.374693 12.680726 28.374694 28.249141v512.502207c0 7.533104-3.013242 14.689554-8.286415 19.962727-5.273173 5.273173-12.555174 8.286415-20.088279 8.160863h-113.875429c-7.533104 0-14.689554-2.88769-20.088278-8.160863-5.273173-5.273173-8.286415-12.429622-8.286415-19.962727V426.373713z m-56.874939 0v512.502207c0 22.599313 9.039725 44.194213 24.984796 60.139284 15.945071 15.945071 37.665522 24.859245 60.264836 24.859244h113.875429c22.599313 0.125552 44.319765-8.914174 60.264836-24.859244 15.945071-15.945071 24.984796-37.665522 24.984796-60.264836V426.373713c0-22.599313-9.039725-44.194213-24.984796-60.139284-15.945071-15.945071-37.665522-24.859245-60.264836-24.859245h-113.875429c-22.599313 0-44.319765 8.914174-60.264836 24.859245-15.945071 15.819519-24.984796 37.539971-24.984796 60.139284z m739.499755 170.750367c0-15.693968 12.555174-28.249142 28.374693-28.249141h113.875429c15.693968 0 28.374693 12.680726 28.374694 28.249141v341.626288c0 7.533104-3.013242 14.689554-8.286415 20.088278-5.273173 5.273173-12.555174 8.286415-20.088279 8.160864h-113.875429c-15.693968 0-28.374693-12.680726-28.374693-28.249142V597.12408z m-56.874939 0v341.626288c0 47.081903 38.167729 85.12408 85.249632 85.12408h113.875429c22.599313 0 44.319765-8.914174 60.264836-24.859244 15.945071-15.945071 24.984796-37.665522 24.984797-60.264836V597.12408c0-47.081903-38.167729-85.12408-85.249633-85.12408h-113.875429c-22.599313 0-44.319765 8.914174-60.264835 24.859245-16.070623 15.945071-24.984796 37.665522-24.984797 60.264835z m0 0" fill="#FF1D12" p-id="6705"></path></svg>