<?xml version="1.0" standalone="no"?><!DOCTYPE svg PUBLIC "-//W3C//DTD SVG 1.1//EN" "http://www.w3.org/Graphics/SVG/1.1/DTD/svg11.dtd"><svg t="1584344186452" class="icon" viewBox="0 0 1024 1024" version="1.1" xmlns="http://www.w3.org/2000/svg" p-id="5684" xmlns:xlink="http://www.w3.org/1999/xlink" width="16" height="16"><defs><style type="text/css"></style></defs><path d="M950.196471 124.223546c-9.40337-22.150355-34.981583-32.484766-57.13339-23.082848l-133.201339 56.459438c-17.023092 7.226099-27.053935 24.003722-26.526684 41.437867-0.013072 0.43284-0.031955 0.865679-0.031954 1.301424v395.477515c-28.179609-17.85827-61.591058-28.205753-97.422344-28.205753-100.664284 0-182.26619 81.604811-182.26619 182.264737 0 100.662831 81.603359 182.26619 182.26619 182.26619 100.376692 0 181.795586-81.145827 182.256023-181.416488a43.529441 43.529441 0 0 0 2.312352-14.003381V226.569804l106.66594-45.211415c22.148902-9.40337 32.483313-34.981583 23.081396-57.134843zM112.181016 297.343455h519.955245c26.554281 0 48.078616-21.525787 48.078616-48.077163 0-26.554281-21.522882-48.077163-48.078616-48.077163H112.181016c-26.552828 0-48.075711 21.522882-48.075711 48.077163 0 26.551376 21.524335 48.077163 48.075711 48.077163zM113.890587 434.518786c-26.551376 0-48.075711 21.522882-48.07571 48.077163 0 26.549923 21.524335 48.080068 48.07571 48.080068h367.23545c26.552828 0 48.077163-21.528692 48.077163-48.080068 0-26.552828-21.522882-48.077163-48.077163-48.077163H113.890587zM340.707313 667.848443H113.890587c-26.551376 0-48.075711 21.522882-48.07571 48.078615 0 26.549923 21.524335 48.077163 48.07571 48.077163H340.708766c26.552828 0 48.077163-21.525787 48.077163-48.077163-0.001452-26.555733-21.524335-48.078616-48.078616-48.078615z" fill="#FF1D12" p-id="5685"></path></svg>