<?xml version="1.0" standalone="no"?><!DOCTYPE svg PUBLIC "-//W3C//DTD SVG 1.1//EN" "http://www.w3.org/Graphics/SVG/1.1/DTD/svg11.dtd"><svg t="1585722897001" class="icon" viewBox="0 0 1158 1024" version="1.1" xmlns="http://www.w3.org/2000/svg" p-id="10471" xmlns:xlink="http://www.w3.org/1999/xlink" width="144.75" height="128"><defs><style type="text/css"></style></defs><path d="M652.221055 5.969602A506.136998 506.136998 0 1 0 1158.358053 511.6802 505.923798 505.923798 0 0 0 652.221055 5.969602z m0 733.834687A227.697689 227.697689 0 1 1 880.131944 511.6802a227.697689 227.697689 0 0 1-227.910889 228.124089z m0-278.226109A50.52842 50.52842 0 1 0 703.602275 511.6802a50.74162 50.74162 0 0 0-50.528419-50.52842z m0 0" p-id="10472"></path><path d="M898.680351 32.193213v72.914428a30.487612 30.487612 0 0 1-19.827607 29.634812l-194.864876 62.254424a30.487612 30.487612 0 0 0-19.827608 30.274412l11.299604 551.335415a31.127212 31.127212 0 0 0 17.482407 28.142411l187.189673 82.508432a31.127212 31.127212 0 0 1 17.482407 28.782012v75.046429A29.208411 29.208411 0 0 1 870.32474 1023.3604l-841.713928-2.132001a29.421611 29.421611 0 0 1-27.076411-30.061212L0.042 30.700812A29.208411 29.208411 0 0 1 27.331611 0l844.05913 1.2792a29.421611 29.421611 0 0 1 27.28961 30.914013z" fill="#3D3D3D" p-id="10473" data-spm-anchor-id="a313x.7781069.0.i4" class=""></path></svg>