<?xml version="1.0" standalone="no"?><!DOCTYPE svg PUBLIC "-//W3C//DTD SVG 1.1//EN" "http://www.w3.org/Graphics/SVG/1.1/DTD/svg11.dtd"><svg t="1589372658718" class="icon" viewBox="0 0 1024 1024" version="1.1" xmlns="http://www.w3.org/2000/svg" p-id="6028" xmlns:xlink="http://www.w3.org/1999/xlink" width="128" height="128"><defs><style type="text/css"></style></defs><path d="M945.39264 473.78944L211.84 473.78944l187.32032-180.33152a12.288 12.288 0 0 0 0-17.37216l-37.632-37.62688a12.288 12.288 0 0 0-17.37216 0l-235.79648 227.0208a8.192 8.192 0 0 0-0.79872 0.72192l-1.25952 1.25952-36.37248 35.00544c-2.56 2.57024-3.7376 5.9904-3.55840001 9.35424a12.23168 12.23168 0 0 0 3.55840001 9.37472l37.632 36.27008c0.24064 0.24064 0.49152 0.4608 0.74752 0.68095999l235.84768 227.05152001a12.288 12.288 0 0 0 17.37216 0l37.632-37.632a12.288 12.288 0 0 0 0-17.37216l-185.56928-178.6368 731.8016 1e-8a12.27264 12.27264 0 0 0 12.27776-12.27776001L957.6704 486.06208a12.27776 12.27776 0 0 0-12.27776-12.27776001l0 0.00512001z" fill="" p-id="6029"></path></svg>