<?xml version="1.0" standalone="no"?><!DOCTYPE svg PUBLIC "-//W3C//DTD SVG 1.1//EN" "http://www.w3.org/Graphics/SVG/1.1/DTD/svg11.dtd"><svg t="1584768728778" class="icon" viewBox="0 0 1024 1024" version="1.1" xmlns="http://www.w3.org/2000/svg" p-id="8982" xmlns:xlink="http://www.w3.org/1999/xlink" width="128" height="128"><defs><style type="text/css"></style></defs><path d="M582.4 764.8c0 99.2 80 179.2 179.2 179.2s179.2-80 179.2-179.2-80-179.2-179.2-179.2H608c-16 0-28.8 12.8-28.8 28.8l3.2 150.4z m182.4-227.2c124.8 0 227.2 102.4 227.2 227.2S889.6 992 764.8 992s-227.2-102.4-227.2-227.2v-153.6c0-41.6 32-73.6 73.6-73.6h153.6z m-278.4 227.2c0 124.8-102.4 227.2-227.2 227.2C134.4 992 32 889.6 32 764.8c0-124.8 102.4-227.2 227.2-227.2h153.6c41.6 0 73.6 32 73.6 73.6v153.6z m-227.2-182.4c-99.2 0-179.2 80-179.2 179.2s80 179.2 179.2 179.2 179.2-80 179.2-179.2V608c0-16-12.8-28.8-28.8-28.8l-150.4 3.2z m278.4-323.2C537.6 134.4 640 32 764.8 32 889.6 32 992 134.4 992 259.2c0 124.8-102.4 227.2-227.2 227.2h-153.6c-41.6 0-73.6-32-73.6-73.6V259.2z m227.2 182.4c99.2 0 179.2-80 179.2-179.2S864 80 764.8 80 582.4 160 582.4 259.2v153.6c0 16 12.8 28.8 28.8 28.8h153.6zM441.6 259.2c0-99.2-80-179.2-179.2-179.2C160 80 80 160 80 259.2c0 99.2 80 179.2 179.2 179.2h153.6c16 0 28.8-12.8 28.8-28.8V259.2z m-182.4 227.2C134.4 486.4 32 387.2 32 259.2 32 134.4 134.4 32 259.2 32c124.8 0 227.2 102.4 227.2 227.2v153.6c0 41.6-32 73.6-73.6 73.6H259.2z" p-id="8983" fill="#ffffff"></path></svg>