<?xml version="1.0" standalone="no"?><!DOCTYPE svg PUBLIC "-//W3C//DTD SVG 1.1//EN" "http://www.w3.org/Graphics/SVG/1.1/DTD/svg11.dtd"><svg t="1585483240477" class="icon" viewBox="0 0 1024 1024" version="1.1" xmlns="http://www.w3.org/2000/svg" p-id="13568" xmlns:xlink="http://www.w3.org/1999/xlink" width="128" height="128"><defs><style type="text/css"></style></defs><path d="M233.2 842.96666667L273 604.06666667S129 456.76666667 113.7 444.76666667c-19.9-15.6-29.9-86.4 39.8-99.5l219-19.9L472 146.16666667c21-38.3 58.5-32.1 79.6 0L631.3 265.66666667c18.6 26.1-15 62.5-39.8 19.9 0 0-29.5-53-59.7-99.5-19.9-30.6-27.1-25.7-39.8 0-31.4 63.2-67.3 137.4-79.6 159.3-10.6 17.1-20.9 17.2-39.8 19.9-22.7-0.6-164.8 12.1-219 19.9-19.6 2.8-19.1 21.2 0 39.8 43.3 42.1 159.3 159.3 159.3 159.3 6.5 6.4 5.3 16.7 0 39.8l-39.8 219 219-119.4c12.3-7.9 31.8-4.2 39.8 0 0 0 187.3 108.9 199.1 119.4 11.8 10.6 21.3 9.5 19.9 0-9.4-63.4-39.8-219-39.8-219-5.9-26.3 4.7-49.7 19.9-59.7 0 0 94.7-96 139.3-139.4 21.1-20.5 24.6-36.3 0-39.8-45.1-6.5-139.4-19.9-139.4-19.9-46.3-5.9-32.5-44.6 0-39.8l159.3 19.9c45.1 7.1 47.6 73.6 19.9 99.5L750.8 604.06666667l39.8 238.9c6.4 44.8-26.9 68.1-79.6 39.8L511.9 763.26666667 292.9 882.66666667c-26.9 13.4-65.5 1.1-59.7-39.7z" fill="#ffffff" p-id="13569"></path></svg>