<?xml version="1.0" standalone="no"?><!DOCTYPE svg PUBLIC "-//W3C//DTD SVG 1.1//EN" "http://www.w3.org/Graphics/SVG/1.1/DTD/svg11.dtd"><svg t="1584769230538" class="icon" viewBox="0 0 1130 1024" version="1.1" xmlns="http://www.w3.org/2000/svg" p-id="25412" data-spm-anchor-id="a313x.7781069.0.i8" xmlns:xlink="http://www.w3.org/1999/xlink" width="141.25" height="128"><defs><style type="text/css"></style></defs><path d="M1058.956675 455.831959a67.739734 67.739734 0 0 1-12.313108-1.234839L953.113341 882.027785H176.92889L82.798885 454.59712a69.397946 69.397946 0 0 1-12.489513 1.234839A69.856601 69.856601 0 0 1 0.523333 385.869515a69.856601 69.856601 0 0 1 69.786039-69.997725c38.526974 0 69.786038 31.329627 69.786038 69.997725a69.503789 69.503789 0 0 1-26.03746 54.085944c34.399084 38.562255 87.144345 74.231458 165.609537 74.231458 159.823435 0 237.618285-227.59845 268.348133-352.176054a80.440934 80.440934 0 0 1-24.096999-8.749715 81.746335 81.746335 0 0 1-40.714403-70.738628A81.534648 81.534648 0 0 1 564.633023 0.882028a81.499367 81.499367 0 0 1 81.428805 81.640492c0 29.177479-15.523689 56.132248-40.714402 70.738628a80.264528 80.264528 0 0 1-24.061718 8.749715c30.694567 124.577604 108.524699 352.176054 268.312852 352.176054 78.465192 0 131.245734-35.669204 165.609537-74.231458a69.644914 69.644914 0 0 1 8.855559-114.734174 69.680195 69.680195 0 0 1 69.786038 0c21.59204 12.524795 34.893019 35.633922 34.893019 60.64823A69.856601 69.856601 0 0 1 1058.956675 455.831959zM565.021116 529.216671h-0.176406L564.668304 164.198292 564.84471 529.216671a105.843334 105.843334 0 0 0 0.105843 211.686668H565.021116a105.843334 105.843334 0 1 0 0-211.686668zM231.120677 917.45002h668.118407c29.671415 0 54.227068 23.81475 54.227068 52.6747 0 28.824668-24.555654 52.639418-54.227068 52.639418H231.120677c-29.671415 0-54.227068-23.81475-54.227068-52.639418 0-28.859949 24.555654-52.674699 54.227068-52.6747z" fill="#ffffff" p-id="25413" data-spm-anchor-id="a313x.7781069.0.i9" class=""></path></svg>