<?xml version="1.0" standalone="no"?><!DOCTYPE svg PUBLIC "-//W3C//DTD SVG 1.1//EN" "http://www.w3.org/Graphics/SVG/1.1/DTD/svg11.dtd"><svg t="1585538183576" class="icon" viewBox="0 0 1024 1024" version="1.1" xmlns="http://www.w3.org/2000/svg" p-id="4933" xmlns:xlink="http://www.w3.org/1999/xlink" width="128" height="128"><defs><style type="text/css"></style></defs><path d="M511.723301 508.586667m-507.387387 0a507.387387 507.387387 0 1 0 1014.774775 0 507.387387 507.387387 0 1 0-1014.774775 0Z" fill="#FFFFFF" p-id="4934"></path><path d="M340.318617 701.117117c-30.166486 9.225225-20.110991 29.428468-20.110991 29.428469 20.110991 79.613694 261.535135-109.411171 271.59063-139.300901S572.056274 571.318198 572.056274 571.318198C430.910328 690.692613 340.410869 701.117117 340.318617 701.117117z m171.404684 322.882883a511.723243 511.723243 0 1 1 511.723244-511.723243 511.630991 511.630991 0 0 1-511.723244 511.077477zM489.95177 474.084324c40.96-2.214054 81.735495-2.214054 81.735495-2.214054 90.499459 9.963243 90.499459-59.687207 90.49946-59.687207v-49.723964c0-39.852973-30.166486-89.576937-120.665946-89.576937s-110.702703 9.963243-110.702703 9.963243c-40.221982 9.963243-30.166486 29.797477-30.166486 29.797478 10.147748 19.926486 40.314234 10.24 40.314234 10.24a283.767928 283.767928 0 0 1 120.665946-9.963243c60.332973 0 60.332973 49.816216 60.332973 49.816216v49.723964c0 29.797477-30.166486 29.797477-30.166487 29.797477H420.762581a29.336216 29.336216 0 0 1-30.166487-29.797477v-69.927207a20.110991 20.110991 0 0 0-40.221982 0v89.484684c10.055495 49.816216 70.388468 49.816216 70.388469 49.816217a193.72973 193.72973 0 0 1 25.738378-4.243604 163.563243 163.563243 0 0 1-126.293333 53.967567s-30.166486 0-30.166487 19.834235c0 0 0 19.926486 30.166487 19.926486s128.691892-19.557477 169.744144-97.233874zM352.403662 696.689009l-4.151352 1.383784c1.660541-0.461261 3.136577-1.014775 4.151352-1.383784z m189.117117-214.855495a19.64973 19.64973 0 0 0-20.110991 19.926486 24.17009 24.17009 0 0 0 2.306306 9.225225l-2.306306 0.461261C390.596094 631.097658 320.207626 621.134414 320.207626 621.134414a19.557477 19.557477 0 0 0-20.110991 19.834235c10.055495 79.613694 231.368649-79.613694 241.424144-109.411172a32.74955 32.74955 0 0 0 1.845045-9.870991c10.793514 0 72.141261 3.505586 108.765405 39.668469C691.984202 601.207928 642.075734 690.692613 572.056274 701.117117c0 0-30.166486 0-40.221982-19.926486 0 0-20.110991-9.963243-20.110991 9.963243 0 0 0 59.687207 50.277478 59.687207S702.500959 710.342342 712.556455 601.207928c0 0 0-119.374414-171.035676-119.374414z m10.055495-89.576937s30.166486 0 30.166487-19.834235c0 0 0-19.926486-30.166487-19.926486H450.929067s-30.166486 0-30.166486 19.926486c0 0 0 19.834234 30.166486 19.834235z" fill="#DB2C1F" p-id="4935" data-spm-anchor-id="a313x.7781069.0.i14" class=""></path></svg>