<?xml version="1.0" standalone="no"?><!DOCTYPE svg PUBLIC "-//W3C//DTD SVG 1.1//EN" "http://www.w3.org/Graphics/SVG/1.1/DTD/svg11.dtd"><svg t="1585570102348" class="icon" viewBox="0 0 1024 1024" version="1.1" xmlns="http://www.w3.org/2000/svg" p-id="8397" xmlns:xlink="http://www.w3.org/1999/xlink" width="128" height="128"><defs><style type="text/css"></style></defs><path d="M774 399H569.2c-15.4 0-25.6 10.2-25.6 25.6 0 15.4 10.2 25.6 25.6 25.6H774c15.4 0 25.6-10.2 25.6-25.6 0-15.3-10.3-25.6-25.6-25.6z m0 102.4H569.2c-15.4 0-25.6 10.2-25.6 25.6 0 15.4 10.2 25.6 25.6 25.6H774c15.4 0 25.6-10.2 25.6-25.6 0-15.3-10.3-25.6-25.6-25.6z m0 102.4H569.2c-15.4 0-25.6 10.2-25.6 25.6 0 15.4 10.2 25.6 25.6 25.6H774c15.4 0 25.6-10.2 25.6-25.6 0-15.3-10.3-25.6-25.6-25.6z m71.7-353.2H343.9l240.6-138.2c10.2-5.1 15.4-20.5 10.2-35.8-10.2-10.2-25.6-15.4-35.8-10.2l-312.3 179s-5.1 0-5.1 5.1h-61.4c-41 0-76.8 35.8-76.8 76.8V737c0 41 35.8 76.8 76.8 76.8h665.6c41 0 76.8-35.8 76.8-76.8V327.4c0-41-35.9-76.8-76.8-76.8zM871.3 737c0 15.4-10.2 25.6-25.6 25.6H180.1c-15.4 0-25.6-10.2-25.6-25.6V327.4c0-15.4 10.2-25.6 25.6-25.6h665.6c15.4 0 25.6 10.2 25.6 25.6V737zM333.7 404.2c-71.7 0-128 56.3-128 128s56.3 128 128 128 128-56.3 128-128-56.4-128-128-128z m0 204.8c-41 0-76.8-35.8-76.8-76.8s35.8-76.8 76.8-76.8 76.8 35.8 76.8 76.8c0 40.9-35.9 76.8-76.8 76.8z m0 0" fill="#ffffff" p-id="8398"></path></svg>