<?xml version="1.0" standalone="no"?><!DOCTYPE svg PUBLIC "-//W3C//DTD SVG 1.1//EN" "http://www.w3.org/Graphics/SVG/1.1/DTD/svg11.dtd"><svg t="1585480968337" class="icon" viewBox="0 0 1024 1024" version="1.1" xmlns="http://www.w3.org/2000/svg" p-id="5225" xmlns:xlink="http://www.w3.org/1999/xlink" width="128" height="128"><defs><style type="text/css"></style></defs><path d="M320 354.257455a192 192 0 1 0 384 0 192 192 0 0 0-384 0zM512 0C229.236364 0 0 229.236364 0 512s229.236364 512 512 512 512-229.236364 512-512S794.763636 0 512 0z m336.756364 805.236364c-48.802909-115.293091-185.018182-232.331636-185.018182-232.331637s-64.139636 53.387636-140.567273 56.622546c-85.643636 3.630545-164.770909-53.294545-164.770909-53.294546s-108.264727 78.661818-182.970182 223.697455c-66.327273-77.428364-111.988364-183.086545-111.988363-292.514909C63.441455 262.213818 264.261818 63.441455 512 63.441455c247.714909 0 448.558545 198.749091 448.558545 443.973818 0 109.312-45.614545 220.439273-111.802181 297.821091z" fill="#EBEBEB" p-id="5226"></path></svg>