<?xml version="1.0" standalone="no"?><!DOCTYPE svg PUBLIC "-//W3C//DTD SVG 1.1//EN" "http://www.w3.org/Graphics/SVG/1.1/DTD/svg11.dtd"><svg t="1589419392438" class="icon" viewBox="0 0 1024 1024" version="1.1" xmlns="http://www.w3.org/2000/svg" p-id="5448" data-spm-anchor-id="a313x.7781069.0.i3" xmlns:xlink="http://www.w3.org/1999/xlink" width="128" height="128"><defs><style type="text/css"></style></defs><path d="M748.43 128.5L217.52 445.78V88.17c0-12.55-10.18-22.73-22.73-22.73s-22.73 10.18-22.73 22.73v848.65c0 12.55 10.18 22.73 22.73 22.73s22.73-10.18 22.73-22.73v-357.6L748.43 896.5c46.49 27.78 105.52-5.71 105.52-59.87V188.37c0-54.16-59.04-87.65-105.52-59.87z m60.05 708.14c0 8.61-3.95 14.21-7.27 17.37-4.65 4.45-10.91 7-17.14 7-4.25 0-8.39-1.18-12.33-3.54L229.36 533.34c-10.67-6.38-11.82-16.69-11.82-20.84 0-4.14 1.15-14.46 11.82-20.84l542.39-324.13c3.94-2.35 8.08-3.54 12.33-3.54 11.74 0 24.4 9.32 24.4 24.38v648.27z" p-id="5449" data-spm-anchor-id="a313x.7781069.0.i2" class="" fill="#ffffff"></path></svg>