<?xml version="1.0" standalone="no"?><!DOCTYPE svg PUBLIC "-//W3C//DTD SVG 1.1//EN" "http://www.w3.org/Graphics/SVG/1.1/DTD/svg11.dtd"><svg t="1584770380864" class="icon" viewBox="0 0 1024 1024" version="1.1" xmlns="http://www.w3.org/2000/svg" p-id="29141" xmlns:xlink="http://www.w3.org/1999/xlink" width="128" height="128"><defs><style type="text/css"></style></defs><path d="M962.57984 514.08a23.04 23.04 0 1 1 0 46.08H497.45984a23.04 23.04 0 0 1 0-46.08h465.12m0-38.4H497.45984a61.44 61.44 0 0 0-61.44 61.44 61.44 61.44 0 0 0 61.44 61.44h465.12A61.44 61.44 0 0 0 1024.01984 537.12a61.44 61.44 0 0 0-61.44-61.44zM962.57984 160a23.04 23.04 0 1 1 0 46.08H497.45984a23.04 23.04 0 0 1 0-46.08h465.12m0-38.4H497.45984a61.44 61.44 0 0 0-61.44 61.44 61.44 61.44 0 0 0 61.44 61.44h465.12A61.44 61.44 0 0 0 1024.01984 183.2a61.44 61.44 0 0 0-61.44-61.44zM962.57984 848a23.04 23.04 0 1 1 0 46.08H497.45984a23.04 23.04 0 1 1 0-46.08h465.12m0-38.4H497.45984a61.44 61.44 0 0 0-61.44 61.44 61.44 61.44 0 0 0 61.44 61.44h465.12a61.44 61.44 0 0 0 61.44-60.8 61.44 61.44 0 0 0-61.44-61.44zM152.65984 103.52L176.01984 139.68a43.36 43.36 0 0 0 24.64 17.92l41.76 11.36-26.56 33.12a43.04 43.04 0 0 0-9.76 29.92l1.92 42.56-40.64-16a43.84 43.84 0 0 0-14.56-2.56 43.04 43.04 0 0 0-16 2.88l-40.16 15.2 1.92-43.04v-1.76a43.2 43.2 0 0 0-9.92-27.68l-25.76-32.64 41.12-11.36a44.16 44.16 0 0 0 24.96-18.08l23.68-36m0-65.6a5.28 5.28 0 0 0-4.32 2.24L96.97984 118.4a7.2 7.2 0 0 1-3.04 2.24L3.85984 145.28a5.12 5.12 0 0 0-2.56 8.16l58.4 72.96a5.12 5.12 0 0 1 1.28 3.36l-4.48 93.6a5.28 5.28 0 0 0 5.28 5.28h1.76l87.52-32.96a3.68 3.68 0 0 1 1.76 0 4.32 4.32 0 0 1 1.92 0l87.52 32.96h1.76a5.28 5.28 0 0 0 5.28-5.28l-4.48-93.6a5.12 5.12 0 0 1 1.28-3.36L304.01984 153.44a5.12 5.12 0 0 0-2.56-8.16l-90.08-24.64A6.4 6.4 0 0 1 208.01984 118.4L156.97984 40.16a5.6 5.6 0 0 0-4.32-2.24zM152.65984 448L176.01984 483.36a45.28 45.28 0 0 0 24.8 17.92l41.6 11.2-26.56 33.28A42.88 42.88 0 0 0 206.41984 576l1.6 42.24-40.96-16a42.56 42.56 0 0 0-14.72-2.56 39.2 39.2 0 0 0-16 2.88L96.01984 617.6l3.2-41.6v-1.76a44.32 44.32 0 0 0-9.6-27.52L62.73984 512l41.44-11.2a44.32 44.32 0 0 0 24.8-18.24L152.65984 448m0-65.6a4.96 4.96 0 0 0-4.32 2.24l-51.36 77.44a5.76 5.76 0 0 1-3.04 2.08L3.85984 488.8a5.12 5.12 0 0 0-2.72 8.16l58.56 72.96a5.76 5.76 0 0 1 1.12 3.52l-4.32 93.44a5.12 5.12 0 0 0 5.12 5.44L64.01984 672l87.52-33.12H155.21984L242.09984 672h1.76a5.28 5.28 0 0 0 5.28-5.44l-4.32-93.44a4.64 4.64 0 0 1 1.12-3.52L304.01984 496.96a5.28 5.28 0 0 0-2.72-8.16L211.37984 464a5.28 5.28 0 0 1-3.04-2.08L156.97984 384a5.12 5.12 0 0 0-4.32-2.24zM152.65984 760.96L176.01984 797.12a44.48 44.48 0 0 0 24.8 17.92l41.6 11.36-26.56 33.12a43.04 43.04 0 0 0-9.76 29.92l1.92 42.56-40.8-16a43.68 43.68 0 0 0-14.88-2.72 41.76 41.76 0 0 0-16 2.88l-40.32 16 2.08-43.04v-1.76a43.52 43.52 0 0 0-9.6-27.36l-26.88-33.6 41.44-11.2a44.8 44.8 0 0 0 24.8-18.08l23.68-36m0-65.6a5.28 5.28 0 0 0-4.32 2.24l-50.24 78.08a5.76 5.76 0 0 1-3.04 2.08L3.85984 802.72a4.96 4.96 0 0 0-2.72 8l58.56 73.12a4.96 4.96 0 0 1 1.12 3.36l-4.32 93.44a5.12 5.12 0 0 0 5.12 5.44h1.76l87.52-33.12H154.57984l87.52 33.12h1.76a5.28 5.28 0 0 0 5.28-5.44l-4.32-93.44a4.16 4.16 0 0 1 1.12-3.36L304.01984 810.72a4.96 4.96 0 0 0-2.72-8l-90.4-24.8a5.28 5.28 0 0 1-3.04-2.08L156.97984 697.6a5.6 5.6 0 0 0-4.32-2.24z" p-id="29142" fill="#ffffff"></path></svg>