<?xml version="1.0" standalone="no"?><!DOCTYPE svg PUBLIC "-//W3C//DTD SVG 1.1//EN" "http://www.w3.org/Graphics/SVG/1.1/DTD/svg11.dtd"><svg t="1585137075086" class="icon" viewBox="0 0 1024 1024" version="1.1" xmlns="http://www.w3.org/2000/svg" p-id="4293" xmlns:xlink="http://www.w3.org/1999/xlink" width="128" height="128"><defs><style type="text/css"></style></defs><path d="M911.8 839.6L750.9 678.7c120.1-160.6 87.2-388.1-73.3-508.2s-388.1-87.2-508.2 73.3c-46.9 62.8-72.3 139-72.3 217.4 0 200.5 162.5 363.1 363.1 363.1 78.4 0 154.6-25.4 217.4-72.3l160.8 160.8c20.2 20.3 53.1 20.3 73.4 0.1 20.2-20.2 20.2-53.1 0-73.3z m-451.7-119c-143.2 2-260.9-112.4-263-255.6-2-143.2 112.4-260.9 255.6-263h7.3c143.2 0 259.3 116.1 259.3 259.3S603.4 720.6 460.1 720.6z" p-id="4294" fill="#ffffff"></path></svg>