<?xml version="1.0" standalone="no"?><!DOCTYPE svg PUBLIC "-//W3C//DTD SVG 1.1//EN" "http://www.w3.org/Graphics/SVG/1.1/DTD/svg11.dtd"><svg t="1584422740875" class="icon" viewBox="0 0 1024 1024" version="1.1" xmlns="http://www.w3.org/2000/svg" p-id="16552" xmlns:xlink="http://www.w3.org/1999/xlink" width="64" height="64"><defs><style type="text/css"></style></defs><path d="M512 995.555556C244.622222 995.555556 28.444444 779.377778 28.444444 512S244.622222 28.444444 512 28.444444s483.555556 216.177778 483.555556 483.555556-216.177778 483.555556-483.555556 483.555556z m0-910.222223C278.755556 85.333333 85.333333 278.755556 85.333333 512s193.422222 426.666667 426.666667 426.666667 426.666667-193.422222 426.666667-426.666667S745.244444 85.333333 512 85.333333z" fill="#ffffff" p-id="16553"></path><path d="M455.111111 711.111111c-5.688889 0-11.377778 0-11.377778-5.688889-11.377778-5.688889-17.066667-17.066667-17.066666-22.755555V341.333333c0-11.377778 5.688889-22.755556 17.066666-22.755555 11.377778-5.688889 22.755556-5.688889 28.444445 0l227.555555 170.666666c5.688889 5.688889 11.377778 11.377778 11.377778 22.755556s-5.688889 17.066667-11.377778 22.755556l-227.555555 170.666666c-5.688889 5.688889-11.377778 5.688889-17.066667 5.688889zM483.555556 398.222222v227.555556l153.6-113.777778-153.6-113.777778z" fill="#ffffff" p-id="16554"></path></svg>