<?xml version="1.0" standalone="no"?><!DOCTYPE svg PUBLIC "-//W3C//DTD SVG 1.1//EN" "http://www.w3.org/Graphics/SVG/1.1/DTD/svg11.dtd"><svg t="1584427290504" class="icon" viewBox="0 0 1316 1024" version="1.1" xmlns="http://www.w3.org/2000/svg" p-id="18364" xmlns:xlink="http://www.w3.org/1999/xlink" width="20.5625" height="16"><defs><style type="text/css"></style></defs><path d="M233.665614 371.966276H140.228613C60.536648 371.966276 0.146224 431.18691 0.146224 511.951183v371.554646c0 78.083503 60.390425 140.033648 140.082389 140.033649h93.437001c79.643223 0 140.082389-59.220634 140.082389-140.033649v-371.554646c0-78.083503-60.439166-139.984907-140.082389-139.984907z m0 94.216861c27.441331 0 46.69413 18.862869 46.69413 45.768046v371.554646c0 26.953918-19.252799 45.816787-46.69413 45.816788H140.228613c-27.441331 0-46.69413-18.862869-46.69413-45.816788v-371.554646c0-26.905177 19.252799-45.768046 46.69413-45.768046h93.437001zM703.433905 0.362888h-93.437001c-79.643223 0-140.082389 59.269376-140.082389 140.033648v743.109293c0 78.083503 60.439166 140.033648 140.082389 140.033649h93.437001c79.643223 0 140.082389-59.220634 140.08239-140.033649V140.396536c2.729511-80.764273-60.439166-140.033648-140.08239-140.033648z m0 94.265602c27.490072 0 46.69413 18.862869 46.69413 45.768046v743.109293c0 26.953918-19.204058 45.816787-46.69413 45.816788h-93.437001c-27.441331 0-46.69413-18.862869-46.694129-45.816788V140.396536c0-26.905177 19.252799-45.768046 46.694129-45.768046h93.437001z m472.497802 463.090739h-93.437001c-79.643223 0-140.082389 59.269376-140.082389 140.033648v185.752952c0 78.083503 60.439166 140.033648 140.082389 140.033649h93.437001c79.643223 0 140.082389-59.220634 140.08239-140.033649v-185.752952c0-78.083503-60.439166-140.033648-140.08239-140.033648z m0 94.265602c27.490072 0 46.69413 18.814127 46.69413 45.768046v185.752952c0 26.953918-19.204058 45.816787-46.69413 45.816788h-93.437001c-27.441331 0-46.645389-18.862869-46.645388-45.816788v-185.752952c0-26.953918 19.204058-45.768046 46.645388-45.768046h93.437001z" p-id="18365" fill="#ffffff"></path></svg>