<?xml version="1.0" standalone="no"?><!DOCTYPE svg PUBLIC "-//W3C//DTD SVG 1.1//EN" "http://www.w3.org/Graphics/SVG/1.1/DTD/svg11.dtd"><svg t="1584427513884" class="icon" viewBox="0 0 1024 1024" version="1.1" xmlns="http://www.w3.org/2000/svg" p-id="19905" width="128" height="128" xmlns:xlink="http://www.w3.org/1999/xlink"><defs><style type="text/css"></style></defs><path d="M636.121212 271.515152h7.757576c64.263758 0 116.363636 52.099879 116.363636 116.363636v263.757576c0 64.263758-52.099879 116.363636-116.363636 116.363636H380.121212c-64.263758 0-116.363636-52.099879-116.363636-116.363636V387.878788c0-64.263758 52.099879-116.363636 116.363636-116.363636h7.757576v-11.636364a19.393939 19.393939 0 1 1 38.787879 0V271.515152h170.666666v-11.636364a19.393939 19.393939 0 1 1 38.787879 0V271.515152z m0 38.787878v11.636364a19.393939 19.393939 0 1 1-38.787879 0V310.30303H426.666667v11.636364a19.393939 19.393939 0 1 1-38.787879 0V310.30303h-7.757576c-42.845091 0-77.575758 34.730667-77.575757 77.575758h418.90909c0-42.845091-34.730667-77.575758-77.575757-77.575758h-7.757576zM531.890424 465.454545L434.424242 591.127273v30.999272h96.349091v42.728728h30.999273v-42.728728h29.602909v-25.972363h-29.602909V465.454545h-29.882182z m-1.954909 41.332364h0.837818v89.367273h-69.818181l68.980363-89.367273z" fill="#ffffff" p-id="19906"></path></svg>