<?xml version="1.0" standalone="no"?><!DOCTYPE svg PUBLIC "-//W3C//DTD SVG 1.1//EN" "http://www.w3.org/Graphics/SVG/1.1/DTD/svg11.dtd"><svg t="1592051283217" class="icon" viewBox="0 0 1024 1024" version="1.1" xmlns="http://www.w3.org/2000/svg" p-id="2704" xmlns:xlink="http://www.w3.org/1999/xlink" width="128" height="128"><defs><style type="text/css"></style></defs><path d="M511.632121 262.978437c-64.773236 0-117.470435 52.697199-117.470435 117.470435s52.697199 117.469412 117.470435 117.469412 117.470435-52.696176 117.470435-117.469412S576.405357 262.978437 511.632121 262.978437zM511.633145 64.021106c-247.266593 0-447.716928 200.449311-447.716928 447.715905 0 247.266593 200.449311 447.716928 447.716928 447.716928 247.26864 0 447.715905-200.450335 447.715905-447.716928C959.349049 264.470417 758.901785 64.021106 511.633145 64.021106zM719.689714 746.189763c-12.225439 0-22.13923-9.912767-22.13923-22.13923 0-101.413737-81.665974-180.854021-185.918363-180.854021s-185.918363 79.440283-185.918363 180.854021c0 12.226462-9.911744 22.13923-22.138206 22.13923s-22.13923-9.912767-22.13923-22.13923c0-61.319577 24.040533-118.321826 67.691705-160.505577 21.445428-20.723997 46.499034-36.81344 73.850985-47.756677-9.163707-6.02932-17.785062-13.030781-25.720801-20.967544-30.549783-30.549783-47.374984-71.168899-47.374984-114.372887 0-43.203988 16.824177-83.823104 47.374984-114.37391 30.549783-30.549783 71.167876-47.37396 114.372887-47.37396 43.203988 0 83.822081 16.824177 114.37391 47.37396 30.549783 30.550807 47.374984 71.168899 47.374984 114.37391 0 43.203988-16.825201 83.823104-47.374984 114.372887-7.937786 7.93574-16.558118 14.938224-25.720801 20.966521 27.350928 10.943236 52.405557 27.03268 73.849962 47.7577 43.651173 42.183751 67.692728 99.186 67.692728 160.505577C741.828944 736.276996 731.915154 746.189763 719.689714 746.189763z" fill="#d81e06" p-id="2705"></path></svg>