<?xml version="1.0" standalone="no"?><!DOCTYPE svg PUBLIC "-//W3C//DTD SVG 1.1//EN" "http://www.w3.org/Graphics/SVG/1.1/DTD/svg11.dtd"><svg t="1584189421641" class="icon" viewBox="0 0 1024 1024" version="1.1" xmlns="http://www.w3.org/2000/svg" p-id="14357" xmlns:xlink="http://www.w3.org/1999/xlink" width="16" height="16"><defs><style type="text/css"></style></defs><path d="M948.48 833.92l-185.6-183.68c-3.84-3.84-8.32-6.4-13.44-7.68C801.28 580.48 832 501.76 832 416 832 221.44 674.56 64 480 64 285.44 64 128 221.44 128 416 128 610.56 285.44 768 480 768c85.76 0 163.84-30.72 225.28-81.28 1.92 4.48 4.48 8.96 8.32 12.8l185.6 183.68c14.08 13.44 35.84 13.44 49.92 0S962.56 847.36 948.48 833.92zM480 704C320.64 704 192 575.36 192 416 192 256.64 320.64 128 480 128 639.36 128 768 256.64 768 416 768 575.36 639.36 704 480 704z" p-id="14358" fill="#585858"></path></svg>