<?xml version="1.0" standalone="no"?><!DOCTYPE svg PUBLIC "-//W3C//DTD SVG 1.1//EN" "http://www.w3.org/Graphics/SVG/1.1/DTD/svg11.dtd"><svg t="1589419423418" class="icon" viewBox="0 0 1024 1024" version="1.1" xmlns="http://www.w3.org/2000/svg" p-id="5631" xmlns:xlink="http://www.w3.org/1999/xlink" width="128" height="128"><defs><style type="text/css"></style></defs><path d="M275.57 895.5L806.47999999 578.22 806.47999999 935.83c0 12.54999999 10.18 22.73 22.73000001 22.73s22.73-10.18 22.73-22.73l0-848.65c0-12.54999999-10.18-22.73-22.73-22.73s-22.73 10.18-22.73 22.73l0 357.59999999L275.57 127.5c-46.49-27.78-105.52 5.71-105.52 59.87L170.05 835.63c0 54.16 59.04 87.65 105.52 59.87z m-60.05-708.14c0-8.61000001 3.95000001-14.21 7.27-17.37 4.65-4.45 10.91-7 17.14-7 4.25 0 8.39 1.18 12.33 3.54L794.64 490.65999999c10.67 6.38 11.82 16.69 11.82 20.84000001 0 4.13999999-1.15 14.46-11.82 20.83999999l-542.39 324.13000001c-3.94 2.35-8.08 3.54-12.33 3.54000001-11.74 0-24.4-9.32-24.4-24.38000001l0-648.27z" p-id="5632" fill="#ffffff"></path></svg>